<svg width="58" height="58" viewBox="0 0 58 58" fill="none" xmlns="http://www.w3.org/2000/svg">
  <g id="ic_GNB_like">
    <g id="Ellipse_1" data-name="Ellipse 1" fill="url(#paint0_linear_1581_176)">
      <circle cx="29" cy="29" r="29"/>
    </g>
    <path id="Star_1" data-name="Star 1" d="M26.7175 22.2318C27.4359 20.0207 30.5641 20.0207 31.2825 22.2318L31.5579 23.0793C31.8792 24.0682 32.8007 24.7377 33.8404 24.7377H34.7316C37.0565 24.7377 38.0232 27.7128 36.1423 29.0794L35.4213 29.6031C34.5802 30.2143 34.2282 31.2976 34.5495 32.2864L34.8248 33.1339C35.5433 35.3451 33.0125 37.1838 31.1316 35.8172L30.4107 35.2934C29.5695 34.6823 28.4305 34.6823 27.5893 35.2934L26.8684 35.8172C24.9875 37.1838 22.4567 35.3451 23.1752 33.1339L23.4505 32.2864C23.7718 31.2976 23.4198 30.2143 22.5787 29.6031L21.8577 29.0794C19.9768 27.7128 20.9435 24.7377 23.2684 24.7377H24.1595C25.1993 24.7377 26.1208 24.0682 26.4421 23.0793L26.7175 22.2318Z" fill="black"/>
  </g>
  <defs>
    <linearGradient id="paint0_linear_1581_176" x1="15.5385" y1="6.88462" x2="32.8462" y2="42.4615" gradientUnits="userSpaceOnUse">
      <stop stop-color="#101010"/>
      <stop offset="1" stop-color="#2F2F2F"/>
    </linearGradient>
  </defs>
</svg>

  